<mxfile host="app.diagrams.net" agent="Mozilla/5.0 (Windows NT 10.0; Win64; x64) AppleWebKit/537.36 (KHTML, like Gecko) Chrome/133.0.0.0 Safari/537.36" version="26.0.15">
  <diagram name="Página-1" id="X7bRqbeS12GqL0TD2d2p">
    <mxGraphModel dx="1221" dy="599" grid="1" gridSize="10" guides="1" tooltips="1" connect="1" arrows="1" fold="1" page="1" pageScale="1" pageWidth="1169" pageHeight="827" math="0" shadow="0">
      <root>
        <mxCell id="0" />
        <mxCell id="1" parent="0" />
        <mxCell id="_0nqoeyZXapUpp3nJ0vF-19" style="edgeStyle=orthogonalEdgeStyle;rounded=0;orthogonalLoop=1;jettySize=auto;html=1;exitX=1;exitY=0.5;exitDx=0;exitDy=0;entryX=0;entryY=0.5;entryDx=0;entryDy=0;" parent="1" source="_0nqoeyZXapUpp3nJ0vF-1" target="_0nqoeyZXapUpp3nJ0vF-13" edge="1">
          <mxGeometry relative="1" as="geometry" />
        </mxCell>
        <mxCell id="_0nqoeyZXapUpp3nJ0vF-1" value="Pessoa" style="rounded=0;whiteSpace=wrap;html=1;" parent="1" vertex="1">
          <mxGeometry x="120" y="200" width="120" height="40" as="geometry" />
        </mxCell>
        <mxCell id="_0nqoeyZXapUpp3nJ0vF-18" style="edgeStyle=orthogonalEdgeStyle;rounded=0;orthogonalLoop=1;jettySize=auto;html=1;exitX=0.5;exitY=1;exitDx=0;exitDy=0;entryX=0.5;entryY=0;entryDx=0;entryDy=0;" parent="1" source="_0nqoeyZXapUpp3nJ0vF-2" target="_0nqoeyZXapUpp3nJ0vF-13" edge="1">
          <mxGeometry relative="1" as="geometry" />
        </mxCell>
        <mxCell id="_0nqoeyZXapUpp3nJ0vF-2" value="Banco" style="rounded=0;whiteSpace=wrap;html=1;strokeColor=default;align=center;verticalAlign=middle;fontFamily=Helvetica;fontSize=12;fontColor=default;fillColor=default;" parent="1" vertex="1">
          <mxGeometry x="460" y="100" width="120" height="40" as="geometry" />
        </mxCell>
        <mxCell id="_0nqoeyZXapUpp3nJ0vF-20" style="edgeStyle=orthogonalEdgeStyle;rounded=0;orthogonalLoop=1;jettySize=auto;html=1;exitX=0;exitY=0.5;exitDx=0;exitDy=0;entryX=1;entryY=0.5;entryDx=0;entryDy=0;" parent="1" source="_0nqoeyZXapUpp3nJ0vF-3" target="_0nqoeyZXapUpp3nJ0vF-13" edge="1">
          <mxGeometry relative="1" as="geometry" />
        </mxCell>
        <mxCell id="_0nqoeyZXapUpp3nJ0vF-3" value="Companhia" style="rounded=0;whiteSpace=wrap;html=1;strokeColor=default;align=center;verticalAlign=middle;fontFamily=Helvetica;fontSize=12;fontColor=default;fillColor=default;" parent="1" vertex="1">
          <mxGeometry x="800" y="200" width="120" height="40" as="geometry" />
        </mxCell>
        <mxCell id="_0nqoeyZXapUpp3nJ0vF-21" style="edgeStyle=orthogonalEdgeStyle;rounded=0;orthogonalLoop=1;jettySize=auto;html=1;exitX=0.5;exitY=1;exitDx=0;exitDy=0;entryX=0;entryY=0.5;entryDx=0;entryDy=0;" parent="1" source="_0nqoeyZXapUpp3nJ0vF-4" target="_0nqoeyZXapUpp3nJ0vF-1" edge="1">
          <mxGeometry relative="1" as="geometry" />
        </mxCell>
        <mxCell id="_0nqoeyZXapUpp3nJ0vF-4" value="&lt;u&gt;CPF&lt;/u&gt;" style="ellipse;whiteSpace=wrap;html=1;" parent="1" vertex="1">
          <mxGeometry x="10" y="80" width="100" height="45" as="geometry" />
        </mxCell>
        <mxCell id="_0nqoeyZXapUpp3nJ0vF-22" style="edgeStyle=orthogonalEdgeStyle;rounded=0;orthogonalLoop=1;jettySize=auto;html=1;exitX=0.5;exitY=1;exitDx=0;exitDy=0;entryX=0.25;entryY=0;entryDx=0;entryDy=0;startSize=6;" parent="1" source="_0nqoeyZXapUpp3nJ0vF-5" target="_0nqoeyZXapUpp3nJ0vF-1" edge="1">
          <mxGeometry relative="1" as="geometry">
            <Array as="points">
              <mxPoint x="120" y="133" />
              <mxPoint x="150" y="133" />
            </Array>
          </mxGeometry>
        </mxCell>
        <mxCell id="_0nqoeyZXapUpp3nJ0vF-5" value="&lt;u&gt;Licença&lt;/u&gt;" style="ellipse;whiteSpace=wrap;html=1;" parent="1" vertex="1">
          <mxGeometry x="70" y="20" width="100" height="45" as="geometry" />
        </mxCell>
        <mxCell id="_0nqoeyZXapUpp3nJ0vF-23" style="edgeStyle=orthogonalEdgeStyle;rounded=0;orthogonalLoop=1;jettySize=auto;html=1;entryX=0.5;entryY=0;entryDx=0;entryDy=0;" parent="1" source="_0nqoeyZXapUpp3nJ0vF-6" target="_0nqoeyZXapUpp3nJ0vF-1" edge="1">
          <mxGeometry relative="1" as="geometry" />
        </mxCell>
        <mxCell id="_0nqoeyZXapUpp3nJ0vF-6" value="Nome" style="ellipse;whiteSpace=wrap;html=1;" parent="1" vertex="1">
          <mxGeometry x="180" y="20" width="100" height="45" as="geometry" />
        </mxCell>
        <mxCell id="_0nqoeyZXapUpp3nJ0vF-25" style="edgeStyle=orthogonalEdgeStyle;rounded=0;orthogonalLoop=1;jettySize=auto;html=1;exitX=0.5;exitY=1;exitDx=0;exitDy=0;entryX=0.75;entryY=0;entryDx=0;entryDy=0;" parent="1" source="_0nqoeyZXapUpp3nJ0vF-7" target="_0nqoeyZXapUpp3nJ0vF-1" edge="1">
          <mxGeometry relative="1" as="geometry" />
        </mxCell>
        <mxCell id="_0nqoeyZXapUpp3nJ0vF-7" value="Nome" style="ellipse;whiteSpace=wrap;html=1;" parent="1" vertex="1">
          <mxGeometry x="250" y="80" width="100" height="45" as="geometry" />
        </mxCell>
        <mxCell id="_0nqoeyZXapUpp3nJ0vF-9" value="&lt;u&gt;Bnome&lt;/u&gt;" style="ellipse;whiteSpace=wrap;html=1;" parent="1" vertex="1">
          <mxGeometry x="410" y="20" width="100" height="45" as="geometry" />
        </mxCell>
        <mxCell id="_0nqoeyZXapUpp3nJ0vF-10" value="Bendereço" style="ellipse;whiteSpace=wrap;html=1;" parent="1" vertex="1">
          <mxGeometry x="530" y="20" width="100" height="45" as="geometry" />
        </mxCell>
        <mxCell id="_0nqoeyZXapUpp3nJ0vF-11" value="&lt;u&gt;Cendereço&lt;/u&gt;" style="ellipse;whiteSpace=wrap;html=1;" parent="1" vertex="1">
          <mxGeometry x="730" y="35" width="100" height="45" as="geometry" />
        </mxCell>
        <mxCell id="_0nqoeyZXapUpp3nJ0vF-12" value="&lt;u&gt;Cnome&lt;/u&gt;" style="ellipse;whiteSpace=wrap;html=1;" parent="1" vertex="1">
          <mxGeometry x="890" y="35" width="100" height="45" as="geometry" />
        </mxCell>
        <mxCell id="_0nqoeyZXapUpp3nJ0vF-17" style="edgeStyle=orthogonalEdgeStyle;rounded=0;orthogonalLoop=1;jettySize=auto;html=1;exitX=0.5;exitY=1;exitDx=0;exitDy=0;" parent="1" source="_0nqoeyZXapUpp3nJ0vF-13" target="_0nqoeyZXapUpp3nJ0vF-16" edge="1">
          <mxGeometry relative="1" as="geometry" />
        </mxCell>
        <mxCell id="_0nqoeyZXapUpp3nJ0vF-13" value="u" style="ellipse;whiteSpace=wrap;html=1;aspect=fixed;" parent="1" vertex="1">
          <mxGeometry x="505" y="270" width="30" height="30" as="geometry" />
        </mxCell>
        <mxCell id="_0nqoeyZXapUpp3nJ0vF-16" value="Owner" style="rounded=0;whiteSpace=wrap;html=1;strokeColor=default;align=center;verticalAlign=middle;fontFamily=Helvetica;fontSize=12;fontColor=default;fillColor=default;" parent="1" vertex="1">
          <mxGeometry x="460" y="374" width="120" height="40" as="geometry" />
        </mxCell>
        <mxCell id="_0nqoeyZXapUpp3nJ0vF-26" style="edgeStyle=orthogonalEdgeStyle;rounded=0;orthogonalLoop=1;jettySize=auto;html=1;exitX=0.5;exitY=1;exitDx=0;exitDy=0;entryX=0.366;entryY=-0.1;entryDx=0;entryDy=0;entryPerimeter=0;" parent="1" source="_0nqoeyZXapUpp3nJ0vF-9" target="_0nqoeyZXapUpp3nJ0vF-2" edge="1">
          <mxGeometry relative="1" as="geometry" />
        </mxCell>
        <mxCell id="_0nqoeyZXapUpp3nJ0vF-27" style="edgeStyle=orthogonalEdgeStyle;rounded=0;orthogonalLoop=1;jettySize=auto;html=1;exitX=0.5;exitY=1;exitDx=0;exitDy=0;entryX=0.64;entryY=-0.1;entryDx=0;entryDy=0;entryPerimeter=0;" parent="1" source="_0nqoeyZXapUpp3nJ0vF-10" target="_0nqoeyZXapUpp3nJ0vF-2" edge="1">
          <mxGeometry relative="1" as="geometry" />
        </mxCell>
        <mxCell id="_0nqoeyZXapUpp3nJ0vF-28" style="edgeStyle=orthogonalEdgeStyle;rounded=0;orthogonalLoop=1;jettySize=auto;html=1;exitX=0.5;exitY=1;exitDx=0;exitDy=0;entryX=0.384;entryY=-0.044;entryDx=0;entryDy=0;entryPerimeter=0;" parent="1" source="_0nqoeyZXapUpp3nJ0vF-11" target="_0nqoeyZXapUpp3nJ0vF-3" edge="1">
          <mxGeometry relative="1" as="geometry" />
        </mxCell>
        <mxCell id="_0nqoeyZXapUpp3nJ0vF-29" style="edgeStyle=orthogonalEdgeStyle;rounded=0;orthogonalLoop=1;jettySize=auto;html=1;entryX=0.614;entryY=-0.067;entryDx=0;entryDy=0;entryPerimeter=0;" parent="1" source="_0nqoeyZXapUpp3nJ0vF-12" target="_0nqoeyZXapUpp3nJ0vF-3" edge="1">
          <mxGeometry relative="1" as="geometry" />
        </mxCell>
      </root>
    </mxGraphModel>
  </diagram>
</mxfile>
